<svg xmlns="http://www.w3.org/2000/svg" width="194.8" height="187" viewBox="0 0 194.8 187">
  <g id="Group_27" data-name="Group 27" transform="translate(-443 -2819)">
    <path id="Path_30" data-name="Path 30" d="M190.993,10.249H3.805A3.805,3.805,0,0,0,0,14.051V53.188a3.805,3.805,0,0,0,3.805,3.805H190.993a3.805,3.805,0,0,0,3.805-3.805V14.051a3.805,3.805,0,0,0-3.805-3.8Zm-3.805,39.134H7.609V17.858H187.189Z" transform="translate(443 2808.751)" fill="#f6f4f4"/>
    <path id="Path_31" data-name="Path 31" d="M426.878,56.634l-3.107-3.107a12.146,12.146,0,1,0-5.381,5.381l3.107,3.107a3.8,3.8,0,1,0,5.381-5.381ZM416.13,51.267a4.545,4.545,0,1,1,1.331-3.214,4.545,4.545,0,0,1-1.331,3.214Z" transform="translate(194.716 2792.859)" fill="#f6f4f4"/>
    <path id="Path_32" data-name="Path 32" d="M346.074,82.846a3.824,3.824,0,0,0-.217-.712,3.884,3.884,0,0,0-.35-.658,3.821,3.821,0,0,0-.471-.578,3.649,3.649,0,0,0-.578-.471,3.767,3.767,0,0,0-.658-.35,3.841,3.841,0,0,0-.712-.217,3.766,3.766,0,0,0-1.487,0,3.888,3.888,0,0,0-1.947,1.038,4.014,4.014,0,0,0-.471.578,3.909,3.909,0,0,0-.35.658,3.806,3.806,0,0,0,2.058,4.967,4.031,4.031,0,0,0,.712.217,3.79,3.79,0,0,0,2.2-.217,3.9,3.9,0,0,0,.658-.35,3.628,3.628,0,0,0,.578-.471,3.84,3.84,0,0,0,1.114-2.69,3.785,3.785,0,0,0-.077-.745Z" transform="translate(233.263 2765.67)" fill="#f6f4f4"/>
    <path id="Path_33" data-name="Path 33" d="M175.672,79.786H96.6a3.8,3.8,0,1,0,0,7.609h79.073a3.8,3.8,0,1,0,0-7.609Z" transform="translate(385.51 2765.67)" fill="#f6f4f4"/>
    <path id="Path_34" data-name="Path 34" d="M120.509,147.364H4.986a3.805,3.805,0,0,0-3.805,3.805V226.2A3.805,3.805,0,0,0,4.986,230H120.509a3.805,3.805,0,0,0,3.805-3.805V151.169a3.805,3.805,0,0,0-3.805-3.805ZM47.074,222.392H14.78L36.53,197.21l15.757,18.244Zm9.512,0,7.095-9.464H82.128a3.8,3.8,0,1,0,0-7.609H69.388l2.669-3.559H95.946l15.472,20.627Zm21.177-28.236L84,185.838l6.238,8.316Zm38.942,22.605L87.039,177.214a3.805,3.805,0,0,0-6.081,0l-24,32L39.409,188.9a3.8,3.8,0,0,0-5.758,0L8.79,217.684v-62.71H116.706Z" transform="translate(442.268 2723.803)" fill="#f6f4f4"/>
    <path id="Path_35" data-name="Path 35" d="M115.746,178.846A13.451,13.451,0,1,0,129.2,192.3a13.451,13.451,0,0,0-13.45-13.451Zm0,19.292a5.838,5.838,0,1,0,0-.005Z" transform="translate(379.625 2704.299)" fill="#f6f4f4"/>
    <path id="Path_36" data-name="Path 36" d="M400.59,147.364H342.117a3.8,3.8,0,0,0-3.805,3.805V226.2A3.805,3.805,0,0,0,342.117,230H400.59A3.805,3.805,0,0,0,404.4,226.2V151.169a3.805,3.805,0,0,0-3.805-3.805Zm-3.805,75.028H345.922V154.974h50.863Z" transform="translate(233.404 2723.803)" fill="#f6f4f4"/>
    <path id="Path_37" data-name="Path 37" d="M408.547,183.835H375.4a3.8,3.8,0,1,0,0,7.609h33.147a3.8,3.8,0,1,0,0-7.61Z" transform="translate(212.783 2701.208)" fill="#f6f4f4"/>
    <path id="Path_38" data-name="Path 38" d="M408.547,223.969H375.4a3.8,3.8,0,1,0,0,7.609h33.147a3.8,3.8,0,1,0,0-7.609Z" transform="translate(212.783 2676.343)" fill="#f6f4f4"/>
    <path id="Path_39" data-name="Path 39" d="M408.547,264.1H375.4a3.8,3.8,0,1,0,0,7.609h33.147a3.8,3.8,0,1,0,0-7.609Z" transform="translate(212.783 2651.478)" fill="#f6f4f4"/>
    <path id="Path_40" data-name="Path 40" d="M379.127,307.3a3.807,3.807,0,0,0-.217-.712,4.018,4.018,0,0,0-.35-.658,3.8,3.8,0,0,0-4.619-1.4,4.017,4.017,0,0,0-.658.35,3.7,3.7,0,0,0-1.05,1.05,4.022,4.022,0,0,0-.35.658,3.783,3.783,0,0,0,0,2.911,3.988,3.988,0,0,0,.35.658,3.7,3.7,0,0,0,1.051,1.051,4.083,4.083,0,0,0,.658.35,3.862,3.862,0,0,0,.712.217,3.794,3.794,0,0,0,4.474-4.474Z" transform="translate(212.786 2626.614)" fill="#f6f4f4"/>
    <path id="Path_41" data-name="Path 41" d="M432.027,304.236H413.31a3.8,3.8,0,1,0,0,7.609h18.717a3.8,3.8,0,1,0,0-7.609Z" transform="translate(189.297 2626.615)" fill="#f6f4f4"/>
    <path id="Path_42" data-name="Path 42" d="M63.46,378.751H4.986a3.805,3.805,0,0,0-3.805,3.8v39.188a3.805,3.805,0,0,0,3.805,3.805H63.46a3.805,3.805,0,0,0,3.805-3.805V382.551A3.805,3.805,0,0,0,63.46,378.751Zm-3.805,39.183H8.79V386.36H59.653Z" transform="translate(442.268 2580.451)" fill="#f6f4f4"/>
    <path id="Path_43" data-name="Path 43" d="M308.537,378.751h-115a3.805,3.805,0,0,0-3.805,3.805v39.188a3.805,3.805,0,0,0,3.805,3.805h115a3.805,3.805,0,0,0,3.805-3.805V382.551a3.805,3.805,0,0,0-3.806-3.8Zm-3.8,39.183H197.34V386.36H304.733Z" transform="translate(325.456 2580.451)" fill="#f6f4f4"/>
    <path id="Path_44" data-name="Path 44" d="M243.014,433.317a3.88,3.88,0,0,0-.217-.712,3.776,3.776,0,0,0-.35-.658,3.7,3.7,0,0,0-1.05-1.051,3.962,3.962,0,0,0-1.37-.571,3.912,3.912,0,0,0-1.487,0,4.011,4.011,0,0,0-.712.221,3.918,3.918,0,0,0-.655.35,3.657,3.657,0,0,0-.578.471,3.889,3.889,0,0,0-.476.578,3.771,3.771,0,0,0-.35.658,3.782,3.782,0,0,0-.217,2.195,4,4,0,0,0,.217.715,3.84,3.84,0,0,0,.35.654,3.907,3.907,0,0,0,.475.579,3.836,3.836,0,0,0,2.69,1.114,3.768,3.768,0,0,0,.742-.072,3.861,3.861,0,0,0,.712-.221,3.463,3.463,0,0,0,.658-.35,3.692,3.692,0,0,0,1.05-1.05,3.86,3.86,0,0,0,.35-.655,3.984,3.984,0,0,0,.217-.715,3.656,3.656,0,0,0,0-1.483Z" transform="translate(297.11 2548.542)" fill="#f6f4f4"/>
    <path id="Path_45" data-name="Path 45" d="M341.086,430.252H277.194a3.805,3.805,0,1,0,0,7.61h63.891a3.805,3.805,0,1,0,0-7.61Z" transform="translate(273.625 2548.544)" fill="#f6f4f4"/>
  </g>
</svg>
